<?xml version="1.0" encoding="utf-8"?>
<!-- Generator: Adobe Illustrator 15.1.0, SVG Export Plug-In . SVG Version: 6.00 Build 0)  -->
<!DOCTYPE svg PUBLIC "-//W3C//DTD SVG 1.1//EN" "http://www.w3.org/Graphics/SVG/1.1/DTD/svg11.dtd">
<svg version="1.1" id="Capa_1" xmlns="http://www.w3.org/2000/svg" xmlns:xlink="http://www.w3.org/1999/xlink" x="0px" y="0px"
	 width="30px" height="30px" viewBox="0 0 30 30" enable-background="new 0 0 30 30" xml:space="preserve">
<g>
	<g>
	<path fill-rule="evenodd" clip-rule="evenodd" d="M10.2055 0C12.3696 0 20.7427 8.39007 20.8241 10.3906C20.5592 15.6758 16.1987 19.9823 10.8469 19.9823C5.32408 19.9823 0.846924 15.5052 0.846924 9.98232C0.846924 4.74029 5.07279 0.423732 10.2055 0ZM9.41999 1.60187C5.40499 2.28019 2.34692 5.77413 2.34692 9.98232C2.34692 14.6767 6.1525 18.4823 10.8469 18.4823C15.055 18.4823 18.5489 15.4244 19.2276 11.4095L19.2891 11.3832C18.3857 11.7689 17.3912 11.9823 16.3469 11.9823C12.2048 11.9823 8.84692 8.62445 8.84692 4.48232C8.84692 3.56011 9.01337 2.67677 9.31786 1.86072L9.41999 1.60187ZM10.8588 2.0525L10.9918 1.7726L11.1209 1.83794C11.2999 1.93193 11.5061 2.0533 11.7327 2.20066C12.6687 2.80933 13.7418 3.8935 14.8847 5.04814C15.0358 5.20082 15.1882 5.35473 15.3416 5.50893C15.4946 5.66277 15.647 5.8152 15.7979 5.96613C16.943 7.1114 18.002 8.17063 18.6044 9.10927C18.7869 9.3936 18.9288 9.64556 19.0274 9.85219C18.2052 10.2637 17.2935 10.4823 16.3469 10.4823C13.0332 10.4823 10.3469 7.79602 10.3469 4.48232C10.3469 3.63084 10.5238 2.80761 10.8588 2.0525Z" fill="#858E99"/>
	</g>
</g>
</svg>
