<?xml version="1.0" encoding="utf-8"?>
<!-- Generator: Adobe Illustrator 15.1.0, SVG Export Plug-In . SVG Version: 6.00 Build 0)  -->
<!DOCTYPE svg PUBLIC "-//W3C//DTD SVG 1.1//EN" "http://www.w3.org/Graphics/SVG/1.1/DTD/svg11.dtd">
<svg version="1.1" id="Layer_1" xmlns="http://www.w3.org/2000/svg" xmlns:xlink="http://www.w3.org/1999/xlink" x="0px" y="0px"
	 width="14px" height="14px" viewBox="0 0 14 14" enable-background="new 0 0 14 14" xml:space="preserve">
<g>
	<g>
		<path fill="#B3BDC7" d="M10.5,5.25C10.5,2.352,8.148,0,5.25,0S0,2.352,0,5.25c0,2.9,2.35,5.25,5.249,5.25S10.5,8.15,10.5,5.25z
			 M5.25,9.188c-2.171,0-3.937-1.766-3.937-3.938S3.078,1.313,5.25,1.313S9.188,3.078,9.188,5.25S7.42,9.188,5.25,9.188z"/>
		<path fill="#B3BDC7" d="M13.615,11.76l-3.213-3.211c-0.479,0.744-1.111,1.377-1.855,1.855l3.211,3.213
			c0.515,0.51,1.346,0.51,1.857,0C14.127,13.104,14.127,12.273,13.615,11.76z"/>
	</g>
</g>
</svg>
