<?xml version="1.0" encoding="UTF-8"?><svg id="a" xmlns="http://www.w3.org/2000/svg" viewBox="0 0 1712 447"><path d="M1591.04,408.53c-25.19,0-47.16-4.93-65.3-14.64-18.98-10.16-31.7-23.59-37.79-39.9-5.66-15.13-8.41-35.53-8.41-62.36v-22.02c0-6.27,5.08-11.35,11.35-11.35h66.54c-2.4-1.61-4.97-3.32-7.73-5.13-22.5-14.91-37.11-25.53-44.68-32.52-8.28-7.63-15.14-18.1-20.39-31.11-5.16-12.79-7.78-29.04-7.78-48.3,0-27.98,3.69-48.26,11.28-62,7.74-14.03,20.23-25.06,37.11-32.78,16.11-7.37,35.59-11.11,57.92-11.11,24.25,0,45.39,4.05,62.81,12.05,18.44,8.46,31,19.65,37.34,33.26,5.96,12.79,8.85,32.95,8.85,61.62v13.3c0,6.27-5.08,11.35-11.35,11.35h-73.78c39.65,23.68,64.27,43.03,75.26,59.13,11.54,16.92,17.14,42.46,17.14,78.08,0,25.97-3.14,44.95-9.59,58.01-6.74,13.64-19.45,25-37.8,33.78-17.54,8.39-38.06,12.64-61,12.64ZM1585.11,328.6c.4.13,1.24.3,2.61.3,2.42,0,2.85-.69,3.35-1.5.95-1.53,2.55-5.44,2.55-14.37,0-23.34-3.94-29.81-5.21-31.29-1.01-1.1-2.56-2.58-4.92-4.56v33.36c0,12.42,1.21,16.9,1.62,18.06ZM1586.06,114.94c-1.62,0-1.85.36-2.34,1.14-.7,1.11-2.31,4.64-2.31,13.5,0,11.58,1.75,17.27,3.21,20.01.03.06.07.13.1.2.22.43,1.03,1.77,3.49,4.06v-23.25c0-9.78-.8-14.05-1.22-15.61-.23-.03-.54-.05-.93-.05Z" fill="#f5f8ff"/><path d="M1583.15,46.66c22.72,0,42.08,3.67,58.07,11.01,16,7.34,26.6,16.59,31.79,27.74,5.19,11.15,7.79,30.1,7.79,56.83v13.3h-81.24v-24.93c0-11.64-1.04-19.04-3.12-22.23-2.08-3.18-5.54-4.78-10.39-4.78-5.27,0-9.25,2.15-11.95,6.45-2.7,4.3-4.05,10.81-4.05,19.54,0,11.23,1.52,19.68,4.55,25.37,2.9,5.68,11.14,12.54,24.72,20.57,38.94,23.11,63.46,42.08,73.58,56.9,10.11,14.82,15.17,38.72,15.17,71.68,0,23.97-2.81,41.63-8.41,52.98-5.61,11.36-16.45,20.88-32.52,28.57-16.07,7.69-34.77,11.53-56.1,11.53-23.41,0-43.39-4.43-59.94-13.3-16.55-8.86-27.39-20.15-32.52-33.87-5.13-13.71-7.69-33.17-7.69-58.39v-22.02h81.24v40.93c0,12.61,1.14,20.71,3.43,24.31,2.29,3.6,6.34,5.4,12.16,5.4s10.14-2.29,12.99-6.86c2.84-4.57,4.26-11.36,4.26-20.36,0-19.81-2.7-32.76-8.1-38.85-5.54-6.09-19.19-16.28-40.93-30.54-21.75-14.4-36.15-24.86-43.22-31.37-7.06-6.51-12.92-15.51-17.56-27.01-4.64-11.5-6.96-26.18-6.96-44.05,0-25.76,3.29-44.6,9.87-56.52,6.58-11.91,17.21-21.23,31.89-27.95,14.68-6.72,32.41-10.08,53.19-10.08M1583.15,23.96c-23.96,0-45.04,4.08-62.64,12.14-19.14,8.76-33.38,21.41-42.32,37.62-8.54,15.47-12.7,37.55-12.7,67.49,0,21.01,2.82,38.2,8.61,52.55,5.88,14.58,13.7,26.43,23.22,35.2,4.95,4.56,12.59,10.5,23.11,17.95h-29.54c-12.54,0-22.7,10.16-22.7,22.7v22.02c0,28.21,2.98,49.91,9.12,66.33,7.09,18.97,21.58,34.43,43.07,45.93,19.81,10.61,43.58,15.99,70.66,15.99,24.65,0,46.82-4.63,65.9-13.75,20.69-9.9,35.19-23.02,43.08-39,7.24-14.66,10.76-35.28,10.76-63.03,0-37.98-6.25-65.62-19.11-84.47-8.47-12.42-23.31-25.89-45.74-41.39h34.88c12.54,0,22.7-10.16,22.7-22.7v-13.3c0-30.79-3.15-51.89-9.91-66.41-7.51-16.12-21.94-29.17-42.9-38.78-18.92-8.68-41.64-13.08-67.54-13.08h0Z"/><path d="M1387.72,401.47c-5.93,0-10.86-4.56-11.32-10.47l-3.88-49.99h-10.38l-4.36,50.1c-.51,5.87-5.42,10.37-11.31,10.37h-90.43c-3.27,0-6.38-1.41-8.54-3.87s-3.14-5.73-2.71-8.97l44.62-336.39c.75-5.64,5.56-9.86,11.25-9.86h126.43c5.62,0,10.4,4.12,11.23,9.68l50.02,336.39c.49,3.27-.47,6.58-2.63,9.08-2.16,2.5-5.29,3.94-8.6,3.94h-89.4ZM1368.02,258.67c-.86-7.76-1.72-15.88-2.58-24.34-.98,8.92-1.8,17.04-2.47,24.34h5.05Z" fill="#f5f8ff"/><path d="M1427.09,53.73l50.02,336.39h-89.4l-4.69-60.46h-31.29l-5.26,60.46h-90.44l44.62-336.39h126.43M1350.62,270.02h30.11c-4.43-38.1-8.87-85.2-13.32-141.29-8.91,64.41-14.51,111.51-16.79,141.29M1427.09,31.02h-126.43c-11.38,0-21.01,8.43-22.5,19.72l-44.62,336.39c-.86,6.48,1.12,13.02,5.43,17.94,4.31,4.92,10.53,7.74,17.07,7.74h90.44c9.09,0,17.01-5.36,20.62-13.2,3.61,7.83,11.53,13.2,20.62,13.2h89.4c6.6,0,12.88-2.88,17.19-7.88,4.31-5,6.23-11.63,5.26-18.16l-50.02-336.39c-1.65-11.13-11.21-19.36-22.45-19.36h0Z"/><path d="M1151.21,401.47c-6.27,0-11.35-5.08-11.35-11.35l-.03-57.56-7.92,59.06c-.76,5.64-5.56,9.84-11.25,9.84h-54.23c-5.64,0-10.43-4.14-11.23-9.73l-9.59-66.3-.03,64.68c0,6.27-5.08,11.35-11.35,11.35h-76.46c-6.27,0-11.35-5.08-11.35-11.35V53.73c0-6.27,5.08-11.35,11.35-11.35h113.19c5.55,0,10.29,4.02,11.2,9.49,3.36,20.26,6.87,44.43,10.43,71.83l.47,3.23,9.55-74.64c.73-5.67,5.55-9.91,11.26-9.91h113.81c6.27,0,11.35,5.08,11.35,11.35v336.39c0,6.27-5.08,11.35-11.35,11.35h-76.46Z" fill="#f5f8ff"/><path d="M1227.67,53.73v336.39h-76.46l-.1-227.1-30.44,227.1h-54.23l-32.1-221.91-.1,221.91h-76.46V53.73h113.19c3.36,20.23,6.82,44.06,10.38,71.52l12.42,85.57,20.1-157.08h113.81M1227.67,31.02h-113.81c-9.83,0-18.35,6.29-21.45,15.27-3.11-9.01-11.65-15.27-21.45-15.27h-113.19c-12.54,0-22.7,10.16-22.7,22.7v336.39c0,12.54,10.16,22.7,22.7,22.7h76.46c6.29,0,11.99-2.56,16.1-6.7,4.14,4.16,9.86,6.7,16.1,6.7h54.23c5.84,0,11.22-2.22,15.27-5.9,4.03,3.67,9.39,5.9,15.27,5.9h76.46c12.54,0,22.7-10.16,22.7-22.7V53.73c0-12.54-10.16-22.7-22.7-22.7h0Z"/><path d="M811.39,408.53c-16.58,0-32.33-4.08-46.79-12.13-14.44-8.03-25.64-18.24-33.29-30.35-7.48-11.83-12.23-24.48-14.12-37.59-1.76-12.22-2.61-29.77-2.61-53.66v-99.94c0-33.34,1.8-57.1,5.5-72.65,4.08-17.15,15.56-32.79,34.11-46.5,18.33-13.54,42.03-20.4,70.43-20.4s51.13,5.89,69.79,17.51c19.06,11.87,31.75,26.46,37.74,43.35,5.61,15.86,8.34,37.72,8.34,66.85v14.54c0,6.27-5.08,11.35-11.35,11.35h-87.48c-6.27,0-11.35-5.08-11.35-11.35v-30.54c0-22.97-1.25-30.09-1.74-32-.29-.04-.69-.08-1.24-.08-.36,0-.63.02-.84.04-.46,1.58-1.73,7.71-1.73,26.84v56.55c.63-.11,1.28-.17,1.95-.17h102.44c6.27,0,11.35,5.08,11.35,11.35v180.56c0,6.27-5.08,11.35-11.35,11.35h-54.97c-4.88,0-9.21-3.12-10.76-7.74l-1.38-4.11c-3.95,3.76-8.24,6.97-12.87,9.62-10.78,6.17-23.48,9.29-37.76,9.29ZM826.83,328.82c.22.04.59.08,1.12.08,2.04,0,2.15-.27,2.53-1.17.76-1.8,2.53-8.05,2.53-27.16v-28.54h-6.31c-.66,0-1.31-.06-1.95-.17v31.41c0,18.97,1.59,24.35,2.07,25.54,0,0,0,0,0,0Z" fill="#f5f8ff"/><path d="M824.62,46.66c25.63,0,46.89,5.27,63.79,15.79,16.9,10.53,27.91,23.03,33.04,37.5,5.12,14.48,7.69,35.5,7.69,63.06v14.54h-87.48v-30.54c0-19.25-.83-31.3-2.49-36.15-1.66-4.85-5.61-7.27-11.84-7.27-5.4,0-9.07,2.08-11.01,6.23-1.94,4.16-2.91,14.82-2.91,32v161.44c0,15.1.97,25.04,2.91,29.82,1.94,4.78,5.82,7.17,11.64,7.17,6.37,0,10.7-2.7,12.99-8.1,2.29-5.4,3.43-15.93,3.43-31.58v-39.89h-17.66v-51.11h102.44v180.56h-54.97l-8.09-24.1c-5.96,10.39-13.48,18.18-22.56,23.38-9.08,5.19-19.79,7.79-32.12,7.79-14.7,0-28.46-3.57-41.28-10.7-12.82-7.13-22.56-15.96-29.22-26.49-6.66-10.52-10.81-21.57-12.48-33.14-1.66-11.56-2.49-28.91-2.49-52.05v-99.94c0-32.13,1.73-55.48,5.19-70.02,3.46-14.54,13.4-27.88,29.82-40,16.41-12.12,37.64-18.18,63.68-18.18M824.62,23.96c-30.88,0-56.84,7.61-77.17,22.62-20.77,15.34-33.7,33.17-38.42,53-3.91,16.41-5.81,41.04-5.81,75.28v99.94c0,24.44.89,42.52,2.72,55.28,2.11,14.7,7.42,28.85,15.76,42.04,8.67,13.72,21.25,25.23,37.37,34.2,16.18,9,33.78,13.56,52.31,13.56,16.28,0,30.88-3.63,43.4-10.79,1.32-.76,2.62-1.55,3.89-2.38,4.11,3.83,9.6,6.1,15.49,6.1h54.97c12.54,0,22.7-10.16,22.7-22.7v-180.56c0-6.24-2.52-11.9-6.6-16,4.08-4.1,6.6-9.76,6.6-16v-14.54c0-30.44-2.94-53.54-8.99-70.63-6.87-19.38-21.14-35.93-42.43-49.2-20.49-12.76-45.98-19.22-75.79-19.22h0Z"/><path d="M596.36,408.53c-19.41,0-37.18-3.26-52.83-9.68-16.21-6.66-29.47-16.83-39.4-30.23-9.87-13.32-15.84-28.07-17.73-43.84-1.73-14.43-2.57-38.66-2.57-74.07v-57.56c0-34.56.81-58.46,2.46-73.07,1.8-15.95,7.53-30.72,17.03-43.9,9.54-13.25,22.54-23.54,38.64-30.57,15.64-6.83,33.95-10.3,54.41-10.3,19.41,0,37.18,3.26,52.83,9.68,16.21,6.66,29.47,16.83,39.4,30.23,9.88,13.33,15.84,28.08,17.73,43.85,1.73,14.44,2.57,38.67,2.57,74.08v57.56c0,34.53-.81,58.43-2.46,73.06-1.81,15.95-7.54,30.72-17.03,43.9-9.55,13.26-22.55,23.54-38.64,30.57-15.65,6.83-33.95,10.3-54.41,10.3ZM595.55,328.88c.17.01.37.02.6.02.25,0,.46-.01.62-.03.48-1.58,1.95-8.53,1.95-34.13v-154.59c0-17.28-1.12-23.39-1.6-25.21-.1,0-.22,0-.34,0-.56,0-.84.07-.92.1-.43,1.27-1.86,6.84-1.86,25.12v157.08c0,22.02,1.05,29.39,1.55,31.64Z" fill="#f5f8ff"/><path d="M596.36,46.66c18.01,0,34.18,2.94,48.52,8.83,14.34,5.89,25.87,14.72,34.6,26.49,8.73,11.77,13.92,24.59,15.58,38.44,1.66,13.85,2.49,38.1,2.49,72.72v57.55c0,33.8-.8,57.73-2.39,71.79-1.59,14.06-6.58,26.91-14.96,38.54-8.38,11.64-19.71,20.57-33.97,26.8-14.27,6.23-30.89,9.35-49.87,9.35s-34.18-2.94-48.52-8.83c-14.34-5.89-25.87-14.72-34.6-26.49-8.73-11.77-13.92-24.59-15.58-38.44-1.66-13.85-2.49-38.09-2.49-72.72v-57.55c0-33.8.8-57.73,2.39-71.79,1.59-14.06,6.58-26.91,14.96-38.54,8.38-11.64,19.7-20.57,33.97-26.8,14.27-6.23,30.89-9.35,49.87-9.35M596.15,340.25c5.95,0,9.77-2.63,11.43-7.9,1.66-5.26,2.49-17.8,2.49-37.61v-154.59c0-15.65-.87-25.66-2.6-30.02-1.73-4.36-5.3-6.54-10.7-6.54-4.57,0-8.07,1.77-10.49,5.3-2.43,3.53-3.64,13.96-3.64,31.27v157.08c0,19.53.8,31.58,2.39,36.15,1.59,4.57,5.3,6.86,11.12,6.86M596.36,23.96c-22.04,0-41.88,3.78-58.96,11.25-17.98,7.86-32.55,19.41-43.3,34.34-10.64,14.78-17.07,31.35-19.1,49.26-1.7,15.03-2.53,39.35-2.53,74.34v57.55c0,35.87.87,60.54,2.66,75.43,2.13,17.75,8.82,34.33,19.89,49.25,11.18,15.09,26.06,26.52,44.21,33.97,17.02,6.99,36.25,10.53,57.14,10.53,22.03,0,41.87-3.78,58.95-11.25,17.98-7.86,32.55-19.41,43.3-34.34,10.64-14.78,17.07-31.35,19.1-49.25,1.71-15.07,2.53-39.39,2.53-74.34v-57.55c0-35.86-.87-60.53-2.65-75.43-2.13-17.75-8.82-34.32-19.88-49.25-11.19-15.09-26.06-26.52-44.21-33.97-17.03-6.99-36.25-10.53-57.14-10.53h0Z"/><path d="M264.21,401.47c-6.27,0-11.35-5.08-11.35-11.35V53.73c0-6.27,5.08-11.35,11.35-11.35h65.45c43.61,0,72.58,2.02,88.57,6.18,17.06,4.45,30.4,12.06,39.65,22.62,9.1,10.4,14.88,22.21,17.18,35.09,2.08,11.65,3.09,33.27,3.09,66.09v117.81c0,31.52-1.53,52.33-4.68,63.61-3.47,12.45-9.74,22.42-18.63,29.65-8.42,6.85-18.81,11.67-30.91,14.33-11.29,2.49-27.45,3.69-49.4,3.69h-110.33ZM363.03,320.01c1.27-.38,1.92-.74,2.18-.91.54-1.35,2.75-8.51,2.75-35.36v-130.69c0-19.47-.82-25.23-1.18-26.8-.36-1.6-.89-1.91-1.28-2.13-.04-.02-.69-.34-2.48-.68v196.58Z" fill="#f5f8ff"/><path d="M329.66,53.73c42.25,0,70.82,1.94,85.71,5.82,14.89,3.88,26.21,10.25,33.97,19.12,7.76,8.87,12.6,18.74,14.54,29.61,1.94,10.88,2.91,32.24,2.91,64.1v117.81c0,30.2-1.42,50.39-4.26,60.57-2.84,10.18-7.79,18.15-14.86,23.89-7.06,5.75-15.79,9.77-26.18,12.05-10.39,2.29-26.04,3.43-46.96,3.43h-110.33V53.73h65.45M351.68,332.57c12.6,0,20.36-2.53,23.27-7.59,2.91-5.05,4.36-18.8,4.36-41.24v-130.69c0-15.24-.49-25-1.45-29.3-.97-4.29-3.19-7.44-6.65-9.45-3.46-2.01-9.97-3.01-19.53-3.01v221.28M329.66,31.02h-65.45c-12.54,0-22.7,10.16-22.7,22.7v336.39c0,12.54,10.16,22.7,22.7,22.7h110.33c22.77,0,39.73-1.3,51.84-3.96,13.84-3.04,25.83-8.63,35.63-16.62,10.74-8.74,18.28-20.65,22.39-35.4,2.19-7.85,5.09-23.29,5.09-66.67v-117.81c0-33.97-1.04-55.6-3.26-68.08-2.67-14.95-9.33-28.6-19.81-40.57-10.78-12.32-26.03-21.11-45.33-26.14-16.94-4.41-46.84-6.55-91.43-6.55h0Z"/><path d="M111.12,434.51c-6.27,0-11.35-5.08-11.35-11.35v-22.77c-20.63-3.83-39.1-12.98-55.03-27.27-19.18-17.2-28.91-46.5-28.91-87.09v-16.42c0-6.27,5.08-11.35,11.35-11.35h75.35c-24.3-15.31-40.6-26.45-49.82-34-10.43-8.55-19.48-20.55-26.89-35.68-7.45-15.21-11.23-32.55-11.23-51.54,0-28.06,8.28-50.61,24.6-67.02,14.21-14.28,34.56-23.75,60.59-28.21v-16.97c0-6.27,5.08-11.35,11.35-11.35h38.65c6.27,0,11.35,5.08,11.35,11.35v17.12c23.72,4.55,42.26,13.97,55.2,28.09,14.8,16.16,22.31,38.34,22.31,65.95,0,3.76-.28,9.22-.87,16.67-.46,5.91-5.39,10.47-11.32,10.47h-73.58c4.98,3.17,10.91,6.86,17.97,11.16,22.09,13.34,36.9,23.42,45.25,30.8,9,7.95,16.59,19.11,22.56,33.15,5.91,13.9,8.91,31.16,8.91,51.3,0,32.54-8.17,58.7-24.29,77.76-14.48,17.13-35.36,28.49-62.14,33.84v21.99c0,6.27-5.08,11.35-11.35,11.35h-38.65ZM124.58,328.95c.29.07.83.16,1.71.16,2.74,0,3.27-.73,3.5-1.04.6-.82,1.98-3.46,1.98-10.26,0-21.86-1.85-32.14-3.39-36.91-.44-1.36-1.8-4.09-5.9-8.12v17.39c0,29.81,1.58,37.12,2.07,38.65.01.05.03.09.04.13ZM127.11,113.28c-1.52,0-1.7.27-2.01.75-.61.94-2.02,3.93-2.02,11.59,0,13.58,3.19,18.23,4.57,19.61.04.04.08.08.11.11.63.65,1.66,1.58,3.37,2.94v-10.4c0-17.44-1.42-22.99-1.9-24.39-.35-.09-1.01-.21-2.12-.21Z" fill="#f5f8ff"/><path d="M149.76,24.84v26.8c25.9,3.32,45.3,12.02,58.18,26.08,12.88,14.06,19.32,33.49,19.32,58.28,0,3.46-.28,8.73-.83,15.79h-83.94v-13.92c0-14.82-.97-24.52-2.91-29.09-1.94-4.57-6.1-6.86-12.47-6.86-5.13,0-8.97,1.97-11.53,5.92-2.56,3.95-3.84,9.87-3.84,17.77,0,13.16,2.63,22.37,7.9,27.63,5.12,5.27,20.22,15.52,45.3,30.75,21.33,12.88,35.87,22.75,43.63,29.61,7.76,6.86,14.3,16.55,19.63,29.09,5.33,12.54,8,28.15,8,46.85,0,29.92-7.2,53.4-21.61,70.44-14.41,17.04-36.02,27.57-64.83,31.58v31.58h-38.65v-32.62c-22.44-2.21-42.04-10.84-58.8-25.87-16.76-15.03-25.14-41.24-25.14-78.64v-16.41h83.94v20.57c0,22.58.86,36.6,2.6,42.08,1.73,5.47,5.92,8.21,12.57,8.21,5.68,0,9.9-1.9,12.67-5.71,2.77-3.81,4.16-9.45,4.16-16.93,0-18.84-1.32-32.31-3.95-40.41-2.63-8.1-11.64-16.93-27.01-26.49-25.63-16.07-43.05-27.87-52.26-35.43-9.21-7.55-17.18-18.18-23.9-31.89-6.72-13.71-10.08-29.23-10.08-46.54,0-25.07,7.1-44.74,21.3-59.01,14.2-14.27,35.49-23.06,63.89-26.39v-26.8h38.65M149.76,2.14h-38.65c-12.54,0-22.7,10.16-22.7,22.7v7.66c-23.97,5.46-43.18,15.35-57.28,29.52C12.61,80.63,3.22,105.87,3.22,137.05c0,20.73,4.17,39.75,12.39,56.53,8.13,16.6,18.19,29.88,29.89,39.47,4.61,3.78,10.86,8.38,18.86,13.86H27.17c-12.54,0-22.7,10.16-22.7,22.7v16.41c0,20.96,2.48,39.34,7.36,54.62,5.42,16.94,13.94,30.71,25.33,40.92,15.09,13.54,32.27,22.88,51.25,27.89v13.69c0,12.54,10.16,22.7,22.7,22.7h38.65c12.54,0,22.7-10.16,22.7-22.7v-12.96c25.04-6.52,44.99-18.44,59.46-35.55,17.9-21.17,26.98-49.8,26.98-85.1,0-21.67-3.3-40.43-9.81-55.74-6.65-15.62-15.22-28.13-25.49-37.21-6.6-5.83-16.77-13.12-30.89-22.11h33.73c11.85,0,21.71-9.12,22.63-20.93.61-7.76.9-13.5.9-17.56,0-30.53-8.51-55.3-25.29-73.62-12.87-14.04-30.38-23.93-52.22-29.52v-8.03c0-12.54-10.16-22.7-22.7-22.7h0Z"/></svg>